<svg xmlns="http://www.w3.org/2000/svg" width="540" height="128" viewBox="0 0 540 128" fill="none">
<g clip-path="url(#clip0)" filter="url(#filter0_i)">
<g clip-path="url(#clip1)">
<rect width="128" height="128" transform="translate(-0.000488281 -0.000152588)" fill="url(#paint0_linear)"/>
<path d="M63.9996 70.5001H37.9995C34.4097 70.5001 31.4995 67.5899 31.4995 64.0001C31.4995 60.4102 34.4097 57.5 37.9995 57.5H63.9996C67.5895 57.5 70.4996 60.4102 70.4996 64.0001C70.4996 67.5899 67.5895 70.5001 63.9996 70.5001Z" fill="white" fill-opacity="0.6"/>
<path d="M63.9996 38H37.9995C34.4097 38 31.4995 35.0898 31.4995 31.4999C31.4995 27.9101 34.4097 24.9999 37.9995 24.9999H63.9996C85.5388 24.9999 103 42.4609 103 64C103 85.5392 85.5388 103 63.9996 103H37.9995C34.4097 103 31.4995 100.09 31.4995 96.5001C31.4995 92.9103 34.4097 90.0001 37.9995 90.0001H63.9996C78.3591 90.0001 89.9997 78.3595 89.9997 64C89.9997 49.6406 78.3591 38 63.9996 38Z" fill="white"/>
</g>
</g>
<path d="M214.528 10.2H206.016L198.144 42.2L188.48 10.2H180.288L170.624 42.136L162.752 10.2H153.92L166.144 55H174.4L184.256 22.296L194.112 55H202.304L214.528 10.2ZM230.515 21.464C220.915 21.464 214.195 27.864 214.195 38.552C214.195 49.304 220.915 55.704 230.515 55.704C240.179 55.704 246.899 49.304 246.899 38.552C246.899 27.864 240.179 21.464 230.515 21.464ZM230.451 28.824C235.251 28.824 238.771 31.96 238.771 38.552C238.771 44.76 235.763 48.344 230.643 48.344C225.843 48.344 222.323 45.208 222.323 38.552C222.323 32.408 225.331 28.824 230.451 28.824ZM270.232 21.464C264.728 21.464 262.04 23.768 260.184 26.84V22.04H252.312V55H260.248V37.208C260.248 31.832 262.744 28.568 267.48 28.568C271.384 28.568 273.624 30.744 273.624 34.456V55H281.56V33.752C281.56 25.88 277.72 21.464 270.232 21.464ZM319.724 9.496H311.788V26.392C309.804 23.192 305.772 21.464 301.484 21.464C293.42 21.464 286.7 27.096 286.7 38.488C286.7 50.072 293.42 55.704 301.484 55.704C306.028 55.704 310.124 53.72 311.916 49.944V55H319.724V9.496ZM303.34 48.408C298.732 48.408 294.764 45.144 294.764 38.488C294.764 31.768 298.732 28.504 303.34 28.504C307.628 28.504 311.98 31.704 311.98 38.488C311.98 45.208 307.628 48.408 303.34 48.408ZM355.796 40.92V37.656C355.796 26.776 349.012 21.464 341.012 21.464C332.628 21.464 325.14 27.224 325.14 38.744C325.14 50.2 332.5 55.704 340.82 55.704C347.54 55.704 353.876 52.056 355.54 45.08H348.116C346.964 47.704 344.276 48.856 341.14 48.856C336.404 48.856 333.012 46.296 332.82 40.92H355.796ZM340.948 28.312C345.236 28.312 347.988 30.744 347.988 35.096H333.012C333.716 30.296 337.172 28.312 340.948 28.312ZM379.881 21.656H377.705C373.865 21.656 370.793 23.32 369.129 26.904V22.04H361.257V55H369.193V38.872C369.193 32.408 372.201 29.4 377.769 29.4H379.881V21.656ZM397.193 35.352C393.161 34.776 390.28 34.264 390.28 31.704C390.28 29.784 391.816 28.056 395.721 28.056C399.113 28.056 401.417 29.336 401.736 32.6H409.481C409.033 25.24 403.337 21.464 395.656 21.464C388.809 21.464 382.536 24.472 382.536 31.96C382.536 40.088 389.896 41.176 396.361 42.264C400.905 43.032 402.441 43.544 402.441 45.592C402.441 48.088 400.073 49.176 396.681 49.176C392.969 49.176 390.089 47.768 389.512 44.44H381.512C382.088 52.76 389.448 55.704 396.297 55.704C403.656 55.704 410.249 52.184 410.249 44.76C410.249 37.08 403.08 36.248 397.193 35.352ZM433.307 21.464C427.739 21.464 425.179 23.768 423.323 26.904V9.496H415.387V55H423.323V37.208C423.323 31.832 425.819 28.568 430.555 28.568C434.459 28.568 436.699 30.744 436.699 34.456V55H444.635V33.752C444.635 25.88 440.795 21.464 433.307 21.464ZM466.031 21.464C457.839 21.464 452.015 25.176 450.735 32.856H458.287C458.991 30.36 460.399 27.992 465.327 27.992C468.143 27.992 470.767 28.888 470.767 31.384C470.767 34.136 468.207 34.648 466.927 34.84L460.271 35.8C457.263 36.248 449.775 37.656 449.775 45.912C449.775 52.888 455.151 55.704 460.399 55.704C463.919 55.704 468.207 54.424 470.767 50.2V55H478.511V32.152C478.511 24.408 473.263 21.464 466.031 21.464ZM462.447 49.112C459.631 49.112 457.711 47.896 457.711 45.272C457.711 41.624 461.615 41.048 463.023 40.856L466.351 40.344C468.015 40.088 469.359 39.896 470.575 39.384V41.176C470.575 45.592 467.247 49.112 462.447 49.112ZM504.516 21.656H502.34C498.5 21.656 495.428 23.32 493.764 26.904V22.04H485.892V55H493.828V38.872C493.828 32.408 496.836 29.4 502.404 29.4H504.516V21.656ZM536.498 40.92V37.656C536.498 26.776 529.714 21.464 521.714 21.464C513.33 21.464 505.842 27.224 505.842 38.744C505.842 50.2 513.202 55.704 521.522 55.704C528.242 55.704 534.578 52.056 536.242 45.08H528.818C527.666 47.704 524.978 48.856 521.842 48.856C517.106 48.856 513.714 46.296 513.522 40.92H536.498ZM521.65 28.312C525.938 28.312 528.69 30.744 528.69 35.096H513.714C514.418 30.296 517.874 28.312 521.65 28.312ZM189.056 119V111.192H166.08V100.248H186.112V92.44H166.08V82.008H187.84V74.2H157.76V119H189.056ZM225.282 73.496H217.345V90.392C215.361 87.192 211.33 85.464 207.042 85.464C198.977 85.464 192.257 91.096 192.257 102.488C192.257 114.072 198.977 119.704 207.042 119.704C211.585 119.704 215.681 117.72 217.473 113.944V119H225.282V73.496ZM208.897 112.408C204.289 112.408 200.321 109.144 200.321 102.488C200.321 95.768 204.289 92.504 208.897 92.504C213.185 92.504 217.538 95.704 217.538 102.488C217.538 109.208 213.185 112.408 208.897 112.408ZM251.561 85.656H249.385C245.545 85.656 242.473 87.32 240.809 90.904V86.04H232.937V119H240.873V102.872C240.873 96.408 243.881 93.4 249.449 93.4H251.561V85.656ZM269.144 85.464C260.951 85.464 255.128 89.176 253.847 96.856H261.399C262.104 94.36 263.512 91.992 268.44 91.992C271.256 91.992 273.88 92.888 273.88 95.384C273.88 98.136 271.319 98.648 270.04 98.84L263.384 99.8C260.375 100.248 252.887 101.656 252.887 109.912C252.887 116.888 258.264 119.704 263.512 119.704C267.031 119.704 271.319 118.424 273.88 114.2V119H281.624V96.152C281.624 88.408 276.376 85.464 269.144 85.464ZM265.56 113.112C262.744 113.112 260.824 111.896 260.824 109.272C260.824 105.624 264.727 105.048 266.135 104.856L269.464 104.344C271.128 104.088 272.472 103.896 273.688 103.384V105.176C273.688 109.592 270.36 113.112 265.56 113.112ZM337.581 86.04H329.389L322.477 108.376L315.373 86.04H307.629L300.589 108.376L293.613 86.04H285.165L296.557 119H304.237L311.341 97.624L318.509 119H326.125L337.581 86.04ZM388.037 74.2H377.477L365.061 108.44L352.645 74.2H342.085V119H349.701V87.448L361.221 119H368.709L380.229 87.448V119H388.037V74.2ZM410.401 85.464C402.209 85.464 396.385 89.176 395.105 96.856H402.657C403.361 94.36 404.769 91.992 409.697 91.992C412.513 91.992 415.137 92.888 415.137 95.384C415.137 98.136 412.577 98.648 411.297 98.84L404.641 99.8C401.633 100.248 394.145 101.656 394.145 109.912C394.145 116.888 399.521 119.704 404.769 119.704C408.289 119.704 412.577 118.424 415.137 114.2V119H422.881V96.152C422.881 88.408 417.633 85.464 410.401 85.464ZM406.817 113.112C404.001 113.112 402.081 111.896 402.081 109.272C402.081 105.624 405.985 105.048 407.393 104.856L410.721 104.344C412.385 104.088 413.729 103.896 414.945 103.384V105.176C414.945 109.592 411.617 113.112 406.817 113.112ZM452.022 119H462.262L449.59 102.104L461.558 86.04H451.702L444.406 96.344L436.982 86.04H426.742L439.222 102.68L426.934 119H436.918L444.47 108.504L452.022 119Z" fill="black"/>
<defs>
<filter id="filter0_i" x="0" y="0" width="128" height="128" filterUnits="userSpaceOnUse" color-interpolation-filters="sRGB">
<feFlood flood-opacity="0" result="BackgroundImageFix"/>
<feBlend mode="normal" in="SourceGraphic" in2="BackgroundImageFix" result="shape"/>
<feColorMatrix in="SourceAlpha" type="matrix" values="0 0 0 0 0 0 0 0 0 0 0 0 0 0 0 0 0 0 127 0" result="hardAlpha"/>
<feOffset/>
<feGaussianBlur stdDeviation="0.5"/>
<feComposite in2="hardAlpha" operator="arithmetic" k2="-1" k3="1"/>
<feColorMatrix type="matrix" values="0 0 0 0 0 0 0 0 0 0 0 0 0 0 0 0 0 0 0.24 0"/>
<feBlend mode="darken" in2="shape" result="effect1_innerShadow"/>
</filter>
<linearGradient id="paint0_linear" x1="133.819" y1="149.334" x2="9.32662" y2="-31.7455" gradientUnits="userSpaceOnUse">
<stop stop-color="#0066FF"/>
<stop offset="1" stop-color="#66CCFF"/>
</linearGradient>
<clipPath id="clip0">
<rect width="128" height="128" fill="white"/>
</clipPath>
<clipPath id="clip1">
<rect width="128" height="128" rx="29.2039" fill="white"/>
</clipPath>
</defs>
</svg>